<?xml version="1.0" standalone="no"?>
<!DOCTYPE svg PUBLIC "-//W3C//DTD SVG 20010904//EN"
 "http://www.w3.org/TR/2001/REC-SVG-20010904/DTD/svg10.dtd">
<svg version="1.0" xmlns="http://www.w3.org/2000/svg"
 width="700.000000pt" height="700.000000pt" viewBox="0 0 700.000000 700.000000"
 preserveAspectRatio="xMidYMid meet">
<metadata>
Created by potrace 1.14, written by Peter Selinger 2001-2017
</metadata>
<g transform="translate(0.000000,700.000000) scale(0.100000,-0.100000)"
fill="#000000" stroke="none">
<path d="M1027 6123 c-1 -1 -22 -4 -46 -8 -62 -9 -161 -47 -228 -86 -72 -43
-178 -149 -221 -222 -38 -63 -78 -175 -88 -245 -4 -26 -7 -960 -7 -2077 0
-1909 1 -2034 18 -2100 69 -272 285 -471 544 -502 31 -4 434 -7 896 -7 754 0
849 2 928 18 222 43 411 143 571 300 45 45 88 91 94 101 10 19 12 18 34 -10
54 -70 158 -165 255 -232 57 -41 187 -101 273 -127 161 -50 198 -51 1097 -50
461 0 854 4 873 8 214 42 393 181 482 375 64 139 60 6 61 2241 0 1588 -3 2048
-13 2095 -47 226 -207 412 -424 491 -34 12 -83 26 -107 30 -24 4 -424 8 -889
8 -935 2 -934 2 -1122 -64 -178 -62 -379 -204 -486 -344 l-23 -30 -16 25 c-9
13 -52 58 -94 100 -156 154 -346 252 -568 296 -76 14 -186 17 -939 17 -470 1
-854 0 -855 -1z m1764 -456 c146 -42 281 -136 364 -252 50 -69 100 -177 109
-235 3 -19 8 -46 11 -60 6 -28 7 -3188 1 -3235 -7 -50 -16 -93 -26 -120 -74
-194 -199 -328 -377 -403 -117 -50 -128 -50 -1012 -49 -825 2 -826 2 -866 24
-51 27 -84 66 -105 123 -15 41 -16 212 -15 2050 1 1879 2 2008 19 2045 28 64
75 105 146 125 14 4 401 6 860 5 736 -1 842 -3 891 -18z m3196 1 c61 -22 108
-72 126 -135 9 -32 12 -497 12 -2045 l0 -2004 -25 -49 c-31 -60 -99 -110 -162
-119 -72 -10 -1608 -5 -1668 6 -173 30 -328 125 -424 261 -47 67 -89 151 -102
207 -4 19 -9 42 -11 50 -2 8 -6 26 -8 40 -7 39 -6 3211 1 3250 7 39 8 42 18
85 14 55 78 173 125 231 89 111 233 198 374 228 47 9 254 13 877 13 786 1 817
0 867 -19z"/>
</g>
</svg>
